<?xml version="1.0" encoding="UTF-8"?><svg id="a" xmlns="http://www.w3.org/2000/svg" viewBox="0 0 419.49 69"><defs><style>.g,.h{fill:#0072bc;}.i{fill:none;stroke:#0072bc;stroke-miterlimit:10;}.h{fill-rule:evenodd;}</style></defs><g id="b"><g id="c"><g id="d"><g id="e"><path id="f" class="h" d="m191.38,54.92c1.17,0,2.05.39,2.64,1.42h.03v-1.18h2.31v8.28c0,1.45-.51,3.92-4.58,3.92-1.75,0-3.78-.82-3.9-2.84h2.41c.22.91.96,1.21,1.82,1.21,1.35,0,1.97-.92,1.95-2.19h0v-1.16h-.03c-.53.92-1.59,1.37-2.65,1.37-2.65,0-3.78-2.02-3.78-4.45,0-2.29,1.32-4.38,3.8-4.38Zm45.57,0c1.16,0,2.05.39,2.63,1.42h.04v-1.18h2.31v8.28c0,1.45-.51,3.92-4.58,3.92-1.74,0-3.78-.82-3.9-2.84h2.41c.22.91.96,1.21,1.81,1.21,1.35,0,1.97-.92,1.95-2.19h0v-1.16h-.04c-.53.92-1.59,1.37-2.65,1.37-2.65,0-3.78-2.02-3.78-4.45,0-2.29,1.32-4.38,3.8-4.38Zm36.92.24l2,6.06h.03l1.93-6.06h2.52l-3.7,9.96c-.53,1.42-1.37,2-3.05,2-.5,0-.99-.03-1.49-.08v-2c.46.03.94.1,1.42.08.84-.08,1.11-.96.84-1.66l-3.11-8.3h2.6Zm-148.1-3.37v7.6c0,1.33.34,2.65,2.51,2.65,1.92,0,2.53-.84,2.53-2.65v-7.6h2.69v7.6c0,3.3-1.95,4.91-5.22,4.91s-5.2-1.59-5.2-4.91v-7.6h2.69Zm141.26,3.13c2.09,0,4,1.09,4.16,3.35h-2.38c-.15-.99-.79-1.52-1.8-1.52-1.56,0-2.07,1.57-2.07,2.87s.5,2.79,2.02,2.79c1.13,0,1.78-.72,1.93-1.8h2.35c-.31,2.35-1.93,3.63-4.26,3.63-2.67,0-4.47-1.88-4.47-4.53s1.64-4.79,4.52-4.79Zm-99.69,0c3.01,0,4.47,2.53,4.29,5.25h-6.38c.07,1.54.82,2.24,2.17,2.24.97,0,1.76-.6,1.92-1.15h2.14c-.69,2.09-2.14,2.98-4.14,2.98-2.79,0-4.52-1.92-4.52-4.66s1.83-4.67,4.52-4.67Zm80.32,0c3.01,0,4.46,2.53,4.29,5.25h-6.38c.07,1.54.82,2.24,2.17,2.24.98,0,1.76-.6,1.92-1.15h2.14c-.68,2.09-2.14,2.98-4.14,2.98-2.79,0-4.52-1.92-4.52-4.66s1.83-4.67,4.52-4.67Zm-45.57,0c3.01,0,4.47,2.53,4.3,5.25h-6.38c.07,1.54.82,2.24,2.17,2.24.98,0,1.76-.6,1.92-1.15h2.14c-.68,2.09-2.14,2.98-4.14,2.98-2.79,0-4.52-1.92-4.52-4.66s1.83-4.67,4.52-4.67Zm-21.57.24v4.99c0,1.46.43,2.17,1.56,2.17,1.32,0,1.88-.74,1.88-2.53v-4.64h2.43v8.85h-2.31v-1.23h-.05c-.62.99-1.68,1.47-2.7,1.47-2.58,0-3.23-1.46-3.23-3.65v-5.44h2.43Zm31.08-.24c3.01,0,4.46,2.53,4.29,5.25h-6.38c.07,1.54.82,2.24,2.17,2.24.98,0,1.76-.6,1.92-1.15h2.14c-.69,2.09-2.14,2.98-4.14,2.98-2.79,0-4.52-1.92-4.52-4.66s1.83-4.67,4.52-4.67Zm-98.17,0c3.01,0,4.47,2.53,4.3,5.25h-6.38c.07,1.54.82,2.24,2.17,2.24.98,0,1.76-.6,1.92-1.15h2.14c-.68,2.09-2.14,2.98-4.14,2.98-2.79,0-4.52-1.92-4.52-4.65s1.83-4.67,4.52-4.67Zm-67.2,1.89c10.55.58,9.82,3.05,15.48,2.66.63-.05-.48.78-.48.78,0,0,0,0-.02,0l-.06.02c-.68.24-5.91,1.94-12.27-.22-3.21-1.1-5.88-1.99-8.58-1.79,5.07,2.04,7.85,5.47,7.85,5.47h0l-.98.48c-3.16-3.49-5.79-5.16-8.33-5.74-2.54.58-5.18,2.25-8.36,5.74l-.97-.48s2.81-3.43,7.89-5.47h-.01c-2.69-.2-5.38.69-8.6,1.79-6.83,2.32-12.34.2-12.34.2,0,0-1.11-.83-.48-.78,5.66.39,4.93-2.08,15.53-2.66,2.77-.15,5.23.25,7.35.93,2.13-.68,4.59-1.08,7.36-.93Zm182.21-5.02l4.57,12.22h-2.79l-.92-2.72h-4.57l-.96,2.72h-2.72l4.64-12.22h2.75Zm-70.38,0c2.19,0,3.58,1.52,3.58,3.37,0,1.44-.58,2.51-1.93,3.06h0v.03c1.32.34,1.69,1.62,1.78,2.86.05.77.03,2.2.51,2.89h-2.69c-.33-.77-.29-1.95-.43-2.93-.19-1.28-.68-1.85-2.04-1.85h-2.68v4.78h-2.69v-12.22h6.59Zm100.03,3.13c2.58,0,3.23,1.45,3.23,3.64v5.44h-2.43v-5c0-1.45-.43-2.17-1.55-2.17-1.32,0-1.88.74-1.88,2.53v4.64h-2.43v-8.85h2.31v1.23h.05c.62-.99,1.68-1.47,2.7-1.47Zm-81.89-3.13c.43,0,.87.05,1.28.07v1.81c-.29-.03-.58-.05-.89-.05-.65,0-.92.27-.92,1.01v.53h1.68v1.62h-1.68v7.22h-2.43v-7.22h-1.46v-1.62h1.46v-.68c0-1.56.97-2.69,2.96-2.69Zm-38.23,0l5.1,8.2h.03v-8.2h2.51v12.22h-2.69l-5.08-8.18h-.03v8.18h-2.51v-12.22h2.67Zm-35.96,0v4.6h.05c.62-.99,1.68-1.47,2.59-1.47,2.58,0,3.23,1.45,3.23,3.64v5.44h-2.43v-5c0-1.45-.42-2.17-1.55-2.17-1.32,0-1.88.74-1.88,2.53v4.64h-2.43v-12.22h2.43Zm-3.27,0v2.26h-3.66v9.96h-2.68v-9.96h-3.66v-2.26h10.01Zm138.81,4.96c-1.37,0-1.97,1.2-1.97,2.51s.48,2.65,1.97,2.65c1.38,0,2.07-1.18,2.07-2.45,0-1.44-.5-2.72-2.07-2.72Zm-45.57,0c-1.37,0-1.97,1.2-1.97,2.51s.48,2.65,1.97,2.65c1.39,0,2.07-1.18,2.07-2.45,0-1.44-.5-2.72-2.07-2.72Zm35.07-1.95h-.03l-1.59,4.48h3.16l-1.54-4.48Zm-113.69,1.95c-1.54,0-1.99,1.2-2.02,1.88h3.95c-.22-1.23-.75-1.88-1.93-1.88Zm98.17,0c-1.54,0-1.98,1.2-2.02,1.88h3.95c-.22-1.23-.75-1.88-1.93-1.88Zm-9.51,0c-1.54,0-1.99,1.2-2.02,1.88h3.95c-.22-1.23-.75-1.88-1.93-1.88Zm45.57,0c-1.54,0-1.99,1.2-2.02,1.88h3.95c-.22-1.23-.75-1.88-1.93-1.88Zm-80.32,0c-1.54,0-1.98,1.2-2.02,1.88h3.95c-.22-1.23-.75-1.88-1.93-1.88Zm-10.18-2.87h-2.94v3.44h2.94c1.2,0,1.85-.51,1.85-1.74s-.65-1.69-1.85-1.69h0Zm-135.25-3.31c.25.35.42.65.58.95l.12.23c.44.87.88,1.81,2.7,3.9-.64.29-4.35,1.26-6.83,1.36-1.64,0-7.45-1.55-9.38-5.52,3.34,1.79,3.39,1.35,7.84,2.32,3.2.73,5.47,1.74,6.34,1.65-.19-.43-2.66-1.45-4.35-3.58-1.7-2.27-1.31-4.84-2.81-6.73,1.02-.29,4.99,4.36,5.81,5.42Zm39.59-5.44h.09c-1.55,1.9-1.16,4.47-2.85,6.74-1.65,2.13-4.17,3.15-4.36,3.58.92.1,3.14-.92,6.34-1.65,4.45-.97,4.5-.53,7.83-2.32-1.93,3.97-7.74,5.52-9.33,5.52-2.52-.1-6.2-1.07-6.87-1.36,2.66-3,2.42-3.63,3.39-5.08.83-1.06,4.8-5.71,5.86-5.42h-.09Zm4.3-6.38c.34,7.26-2.61,9.77-2.52,10.94,1.26.29,2.71-1.79,4.46-3.2.56-.48,1.01-.78,1.49-1.07l.2-.13c1.03-.64,2.22-1.41,4.74-4.22.19,2.91-3.05,6.97-4.84,7.94-3.92,2.47-4.74,1.55-7.98,2.76.34-1.89.48-4.46.92-6.63.58-2.27,2.71-5.56,3.53-6.38Zm-53.91,0c.77.82,2.9,4.11,3.48,6.38.44,2.18.63,4.74.97,6.63-3.29-1.21-4.12-.29-8.03-2.76-1.79-.97-4.99-5.03-4.79-7.94,2.52,2.81,3.69,3.58,4.72,4.22l.2.13c.47.29.94.59,1.51,1.07,1.74,1.41,3.14,3.49,4.41,3.2.09-1.16-2.86-3.68-2.47-10.94ZM99.97,9.22v20.43c.01,3.61.28,7.8,5.46,7.8s5.29-4.03,5.31-7.59v-.39h0V9.22h11.23v22.36c0,10.11-5.46,14.96-16.59,14.96s-16.65-4.85-16.65-14.96V9.22h11.23Zm124.63-.87c10.01.05,15.52,5.31,16.49,14.45h-10.92c-.2-1.33-1.23-5.36-5.87-5.36-5.26,0-6.94,5.1-6.94,10s1.68,10.01,6.94,10.01c3.78,0,5.26-2.66,5.93-6.08h11.03c0,7.35-5.97,15.16-16.64,15.16-11.79,0-18.48-8.32-18.48-19.1,0-11.49,7.25-19.09,18.48-19.09Zm42.73.87c6.38,0,11.9,3.52,11.9,10.41,0,3.78-1.74,7.76-5.47,9.14,3.07,1.17,4.95,4.54,5.36,9.09.16,1.79.2,6.12,1.23,7.81h-11.23c-.56-1.84-.77-3.72-.92-5.61,0-.07-.01-.13-.02-.2l-.04-.4h0l-.04-.4c-.31-3.13-.95-6.1-4.96-6.1h-5.98v12.71h-11.23V9.22h21.39Zm-87.66,0v12.66h10.52v-12.66h11.23v36.45h-11.23v-14.45h-10.52v14.45h-11.23V9.22h11.23Zm-39.47,0l10.62,19.5h.1V9.22h10.62v36.45h-10.92l-11.18-19.91h-.1v19.91h-10.62V9.22h11.49ZM37.61,0c1.06.73.43,2.41.19,3.09-1.5,3.72-7.97,7.39-10.15,9.47-1.5,1.59-3.86,5.31-2.32,8.4,3.14,1.21,2.9-9.95,6.81-9.76,1.93,1.79-.58,7.05-1.36,9.37-.97,2.86-1.74,8.84-3.57,11.74-1.54,2.42-.39,10-.87,12.61-1.3,1.3-4.83.38-6.33.14,0-2.99-.39-5.36-.87-10.14-.02-.47-.28-4.29-.44-8.26l-.03-.79c-.14-3.84-.16-7.63.23-8.48,1.69-3.72,10.91-10.82,12.18-12.17C32.19,4.01,36.11,0,37.61,0ZM40.21,0C41.71,0,45.57,4.01,46.73,5.21c1.26,1.35,10.48,8.45,12.17,12.17.39.85.37,4.64.22,8.48l-.05,1.19c-.17,3.82-.42,7.4-.46,7.86-.48,4.78-.82,7.15-.82,10.14-1.55.24-5.02,1.16-6.38-.14-.44-2.61.68-10.19-.82-12.61-1.83-2.89-2.6-8.88-3.57-11.74-.77-2.31-3.28-7.58-1.4-9.37,3.92-.19,3.67,10.96,6.86,9.76,1.5-3.09-.87-6.81-2.32-8.4-2.17-2.08-8.64-5.75-10.14-9.47-.24-.68-.91-2.36.19-3.09Zm-1.39,9.11c1.52,0,2.31.62,2.62,1.63,1.22,4.44-2.14,4.44-.97,6.49.82,1.51,3.75.83,3.75,4.97h0v15.22c0,1.5-.46,1.66-2.14,1.66-.48,0-.4.27-.4,1.11h0v4.23c0,.75.06,1.16-.69,1.16h-4.32c-.8,0-.7-.45-.7-1.29h0v-4.1c0-.85.07-1.11-.4-1.11-1.69,0-2.14-.16-2.14-1.66h0v-15.22c0-2.54,1.1-3.27,2.14-3.8l.23-.12c.57-.28,1.1-.54,1.38-1.06,1.17-2.05-2.19-2.05-.97-6.49.31-1.01,1.1-1.63,2.62-1.63ZM9.06,29.52c1.07,1.16,1.46,5.81,1.46,7.26,0,2.95-.54,4.26-.78,6.43C3.98,41.33.98,34.75.98,31.5c1.75,3.97,4.31,3.92,7.65,9.53.29-2.13-.59-.53-.68-4.55.05-2.42.37-3.5.65-4.48l.09-.31c.17-.61.32-1.23.37-2.18Zm59.37,0c.05.87.18,1.47.33,2.03l.09.31c.29,1.02.64,2.08.7,4.63-.1,4.01-.97,2.42-.67,4.55,3.38-5.62,5.9-5.57,7.69-9.53,0,3.24-3.05,9.82-8.76,11.71-.07-.65-.18-1.23-.29-1.79l-.11-.56c-.22-1.13-.43-2.31-.43-4.08,0-1.45.39-6.1,1.45-7.26Zm8.76-8.76c1.45,3.82-2.37,11.52-5.71,13.45-.34-.97-.09-1.98-1.46-4.01-1.6-2.71-2.08-4.89-1.4-7.55.68.63,1.45,2.47,2.32,3.87.63,1.65,1.31,3.87,1.11,5.76.92-.83.68-1.94,2.23-5.56.82-2.42,2.08-3.05,2.9-5.95ZM.3,20.76c.44,1.45.96,2.33,1.48,3.16l.28.45c.42.67.84,1.36,1.19,2.35,1.5,3.63,1.26,4.74,2.23,5.56-.19-1.89.43-4.11,1.07-5.76.92-1.4,1.64-3.24,2.32-3.87.72,2.67.19,4.84-1.35,7.55-1.41,2.03-1.17,3.05-1.5,4.01-3.34-1.93-7.11-9.62-5.71-13.45Zm4.84-9.73c-.43,4.16.68,4.54.24,7.98,0,.19-.49,3.78-.49,3.97.58-.1.05-3.29,6.68-7.89-.54.94-.79,1.64-1.02,2.32l-.12.34c-.35,1.02-.78,2.09-2.25,3.97-2.4,2.36-3.18,4.69-3.33,5.25v.02s-.21-.38-.21-.38c-1.69-3.19-1.88-5.58-2.02-8.33.1-1.98,1.07-6.58,2.52-7.25Zm67.26,0c1.4.68,2.37,5.27,2.47,7.25-.15,2.86-.29,5.33-2.23,8.71h0s0-.03,0-.03c-.14-.54-.86-2.76-3.14-5.06l-.19-.19c-2.62-3.34-1.94-4.12-3.34-6.63,6.58,4.59,6.1,7.79,6.63,7.89,0-.19-.44-3.78-.44-3.97-.48-3.44.63-3.82.24-7.98Zm190.02,6.86h-5.26v7.25h6.02c2.07-.02,4.8-.44,4.8-3.62,0-2.3-1.28-3.63-5.57-3.63h0ZM10.27,5.27c-.39,1.26-1.02,3-1.17,5.37-.82,3.24-1.31,3.34-1.11,3.77.19,0,1.25-1.69,2.56-3,1.55-1.55,3.48-1.89,4.74-2.81-.19.63-1.3,2.61-3.63,4.98-1.4,1.3-2.9,1.84-4.84,4.21-.82-2.86-.63-5.37-.24-7.07.68-2.22,1.79-4.69,3.68-5.47Zm56.95,0c1.89.77,3.05,3.24,3.68,5.47.38,1.69.58,4.21-.25,7.07-1.93-2.37-3.43-2.91-4.79-4.21-2.32-2.37-3.48-4.36-3.68-4.98,1.3.92,3.24,1.26,4.74,2.81,1.31,1.31,2.38,3,2.57,3,.19-.44-.29-.53-1.11-3.77-.15-2.37-.72-4.11-1.16-5.37Zm-50.72-1.74c.49,1.11-1.25,2.81-2.27,4.02-.82.78-2.67,1.31-3.92,2.99-.48-.91.77-3.14,2.27-4.44,1.11-.92,3.29-2.42,3.91-2.56Zm44.47,0c.68.14,2.86,1.64,3.92,2.56,1.51,1.31,2.81,3.53,2.27,4.44-1.21-1.69-3.1-2.22-3.87-2.99-1.06-1.21-2.81-2.9-2.32-4.02Z"/></g></g></g></g><line class="i" x1="297.22" y1="0" x2="297.22" y2="67.15"/><g><path class="g" d="m314.02,9.1h3.16v22.35c0,7.36,3.87,11.83,11.01,11.83s11.01-4.47,11.01-11.83V9.1h3.16v22.4c0,8.99-4.8,14.61-14.17,14.61s-14.17-5.67-14.17-14.61V9.1Z"/><path class="g" d="m350.37,37.99c2.34,2.73,6.16,5.29,11.34,5.29,7.47,0,9.59-4.14,9.59-7.25,0-5.12-4.85-6.54-9.97-7.9-5.72-1.58-11.83-3.22-11.83-9.92,0-5.94,5.34-9.7,11.94-9.7,5.45,0,9.48,1.91,12.32,5.12l-2.07,2.29c-2.62-3.16-6.32-4.58-10.41-4.58-4.85,0-8.5,2.78-8.5,6.7,0,4.31,4.52,5.56,9.48,6.87,5.89,1.69,12.32,3.54,12.32,10.9,0,4.69-3.11,10.3-12.92,10.3-6,0-10.52-2.4-13.3-5.78l2.02-2.34Z"/><path class="g" d="m403.96,36.52h-19.35l-3.65,8.94h-3.49l14.88-36.35h3.87l14.88,36.35h-3.49l-3.65-8.94Zm-18.37-2.83h17.39l-8.72-21.53-8.67,21.53Z"/></g></svg>